<svg xmlns="http://www.w3.org/2000/svg" viewBox="0 0 800 450"><path fill="#45556c" d="m462.236 278.141-5.956-5.955-.576-.64-.384-.448-3.201-3.202-.832-.448-33.17-33.298-.576-.512-20.49-20.554-.64-.832-49.434-49.37c-3.502-3.496-9.477-1.895-10.757 2.881a6.42 6.42 0 0 0 1.664 6.212l6.404 6.403a19.1 19.1 0 0 0-1.857 8.26v76.84c0 10.61 8.6 19.21 19.209 19.21h76.84a18.5 18.5 0 0 0 8.132-1.986h.32l6.083 6.404a6.396 6.396 0 0 0 9.093 0 6.413 6.413 0 0 0 .128-8.965m-106.999-88.878 20.747 20.747a17.9 17.9 0 0 0-4.291 3.074l-16.456 16.521zm6.403 80.618a6.4 6.4 0 0 1-6.403-6.403v-15.752l25.614-25.613a5.19 5.19 0 0 1 7.042 0l47.962 47.768zm23.436-89.646h53.404a6.405 6.405 0 0 1 6.403 6.403v38.036c-3.503-3.496-9.478-1.896-10.758 2.882a6.42 6.42 0 0 0 1.666 6.21l11.141 11.143a6.396 6.396 0 0 0 9.092 0 6.43 6.43 0 0 0 1.857-4.611v-53.66c0-10.609-8.6-19.209-19.209-19.209h-53.596c-4.931 0-8.011 5.34-5.545 9.605a6.39 6.39 0 0 0 5.545 3.201"/></svg>