<svg xmlns="http://www.w3.org/2000/svg" viewBox="0 0 800 450"><path fill="#45556c" d="m462.145 241.25-15.995-16.249a6.39 6.39 0 0 0-9.084 0l-17.849 18.169-17.85-18.169a6.39 6.39 0 0 0-9.084 0l-14.651 14.97-14.65-14.97a6.393 6.393 0 0 0-9.086 0l-15.993 15.993a6.4 6.4 0 0 0-1.344 2.112 6.5 6.5 0 0 0-.512 2.431v24.247c0 10.601 8.592 19.193 19.193 19.193h89.568c10.6 0 19.192-8.592 19.192-19.193v-23.991a6.3 6.3 0 0 0-.512-2.431 6.3 6.3 0 0 0-1.343-2.112m-10.94 28.534a6.397 6.397 0 0 1-6.397 6.398H355.24a6.4 6.4 0 0 1-6.397-6.398v-21.369l9.596-9.596 14.651 14.715a6.4 6.4 0 0 0 9.084 0l14.651-14.715 17.849 18.17a6.404 6.404 0 0 0 9.085 0l17.85-17.914 9.596 9.596zm-6.397-108.76H355.24c-10.601 0-19.193 8.592-19.193 19.193v33.651a8 8 0 0 0 0 1.728v.639c1.746 4.351 7.428 5.413 10.62 1.984l11.772-11.388 14.651 14.715a6.4 6.4 0 0 0 9.084 0l14.651-14.715 17.849 18.17a6.404 6.404 0 0 0 9.085 0l17.85-17.914 11.323 11.388c3.2 3.429 8.88 2.367 10.62-1.984a1.7 1.7 0 0 0 0-.575 5.8 5.8 0 0 0 .384-1.792v-33.907c0-10.576-8.554-19.161-19.128-19.193m6.397 37.362-5.055-5.374a6.39 6.39 0 0 0-9.084 0l-17.849 18.17-17.85-18.17a6.39 6.39 0 0 0-9.084 0l-14.651 14.971-14.65-14.971a6.394 6.394 0 0 0-9.086 0l-5.053 5.374v-18.169a6.4 6.4 0 0 1 6.397-6.398h89.568a6.395 6.395 0 0 1 6.397 6.398z"/></svg>